<?xml version="1.0" encoding="UTF-8"?>
<!DOCTYPE svg PUBLIC "-//W3C//DTD SVG 1.1//EN" "http://www.w3.org/Graphics/SVG/1.1/DTD/svg11.dtd">
<!-- Creator: CorelDRAW X7 -->
<svg xmlns="http://www.w3.org/2000/svg" xml:space="preserve" width="300px" height="300px" version="1.1" style="shape-rendering:geometricPrecision; text-rendering:geometricPrecision; image-rendering:optimizeQuality; fill-rule:evenodd; clip-rule:evenodd"
viewBox="0 0 300 300"
 xmlns:xlink="http://www.w3.org/1999/xlink">
 <defs>
  <style type="text/css">
   <![CDATA[
    .str2 {stroke:#DFE33D;stroke-width:7.99967}
    .str1 {stroke:#129DA6;stroke-width:7.99967}
    .str0 {stroke:#4D4D4D;stroke-width:7.99967}
    .fil2 {fill:#FFF212}
    .fil1 {fill:#1CB5BF}
    .fil0 {fill:#282829}
   ]]>
  </style>
 </defs>
 <g id="Layer_x0020_1">
  <metadata id="CorelCorpID_0Corel-Layer"/>
  <path class="fil0 str0" d="M27 85l0 0c0,-29 24,-54 54,-54l54 0 0 109 -54 0c-30,0 -54,-25 -54,-55z"/>
  <path class="fil0 str0" d="M135 213l0 0c0,-30 -24,-54 -54,-54l-54 0 0 109 54 0c30,0 54,-25 54,-55z"/>
  <path class="fil1 str1" d="M215 159l0 0c30,0 54,24 54,54l0 55 -108 0 0 -55c0,-30 24,-54 54,-54z"/>
  <path class="fil2 str2" d="M215 140l0 0c30,0 54,-25 54,-55l0 -54 -108 0 0 54c0,30 24,55 54,55z"/>
 </g>
</svg>
